<svg width="116.729931640625px" height="146.01248779296873px" xmlns="http://www.w3.org/2000/svg" viewBox="191.6350341796875 1.9937561035156364 116.729931640625 146.01248779296873" style="background:#596886" preserveAspectRatio="xMidYMid"><defs><filter id="editing-hover" x="-100%" y="-100%" width="300%" height="300%"><feFlood flood-color="#052b4a" result="flood"></feFlood><feComposite operator="in" in2="SourceAlpha" in="flood" result="shadow"></feComposite><feOffset dx="-2" dy="-1.9" in="SourceGraphic" result="offset-1"></feOffset><feOffset dx="2" dy="1.9" in="shadow" result="offset-2"></feOffset><feMerge><feMergeNode in="offset-2"></feMergeNode><feMergeNode in="offset-1"></feMergeNode></feMerge></filter></defs><g filter="url(#editing-hover)"><g transform="translate(214.42000102996826, 97.04500007629395)"><path d="M24.38 0.83L24.38 0.83Q14.14 0.83 8.38-4.67L8.38-4.67L8.38-4.67Q2.62-10.18 2.62-20.22L2.62-20.22L2.62-20.22Q2.62-27.07 5.34-32.32L5.34-32.32L5.34-32.32Q8.06-37.57 13.06-40.42L13.06-40.42L13.06-40.42Q18.05-43.26 24.58-43.26L24.58-43.26L24.58-43.26Q29.89-43.26 34.82-41.34L34.82-41.34L33.09-33.09L33.09-33.09Q28.74-35.07 24.64-35.07L24.64-35.07L24.64-35.07Q18.82-35.07 15.42-31.26L15.42-31.26L15.42-31.26Q12.03-27.46 12.03-21.12L12.03-21.12L12.03-21.12Q12.03-14.66 15.62-11.07L15.62-11.07L15.62-11.07Q19.20-7.49 25.54-7.49L25.54-7.49L25.54-7.49Q29.70-7.49 33.60-8.83L33.60-8.83L35.01-0.96L35.01-0.96Q30.34 0.83 24.38 0.83L24.38 0.83ZM42.50 0L42.50-42.62L68.54-42.62L68.54-34.56L51.78-34.56L51.78-24.83L65.66-24.83L65.66-16.83L51.78-16.83L51.78 0L42.50 0Z" fill="#ffd5af"></path></g></g><style>text {
  font-size: 64px;
  font-family: Arial Black;
  dominant-baseline: central;
  text-anchor: middle;
}</style></svg>